<svg xmlns="http://www.w3.org/2000/svg" xmlns:xlink="http://www.w3.org/1999/xlink" width="904.208" height="710" viewBox="0 0 904.208 710">
  <defs>
    <filter id="Diagrama_" x="0" y="0" width="904.208" height="710" filterUnits="userSpaceOnUse">
      <feOffset dx="3" dy="3" input="SourceAlpha"/>
      <feGaussianBlur stdDeviation="10" result="blur"/>
      <feFlood flood-opacity="0.161"/>
      <feComposite operator="in" in2="blur"/>
      <feComposite in="SourceGraphic"/>
    </filter>
  </defs>
  <g transform="matrix(1, 0, 0, 1, 0, 0)" filter="url(#Diagrama_)">
    <path id="Diagrama_2" data-name="Diagrama " d="M365.991,0C260.683,0,174.054,81.49,165.824,184.713c-5.521,67.067,21.7,134.212,86.932,181.848,78.81,57.513,39.645,180.853-55.831,184.729a102.2,102.2,0,0,1-92.375-50.405l-25.886-1.024a2.939,2.939,0,0,1-2.371-4.513l14.773-23.421a49.26,49.26,0,0,0-41.646-22.738c-33.783,0-57.665,33.221-46.747,65.064C29.732,593.01,104.442,649.817,192.22,650h.888c3.41-.008,6.857-.1,10.3-.281C310.748,644.1,395.12,553.509,393.472,446.04a200.806,200.806,0,0,0-83.938-160.077c-82.726-53.98-46.159-183.221,52.173-187.253a102.056,102.056,0,0,1,83.422,37.509h28.2a2.952,2.952,0,0,1,2.562,4.419l-14.147,24.485c25.325,67.45-38.882,103.53,4.17,209.84,29.812,73.6,102.047,125.657,186.229,125.657,87.065,0,161.348-55.681,189.131-133.321a49.32,49.32,0,0,0-46.406-65.975h-.019c-38.019,0-46.88,34.756-50.066,41.608l12.839,24.445a2.948,2.948,0,0,1-2.731,4.3l-29.034-1.138A101.95,101.95,0,0,1,647.9,401.91c-51.7-2.105-94.2-43.352-97.7-94.973-2.765-40.887,16.613-47.479,16.613-106.124C566.8,90.284,476.877,0,365.991,0Z" transform="translate(27 27)" fill="#fff" opacity="0.9"/>
  </g>
</svg>
