<svg xmlns="http://www.w3.org/2000/svg" width="32" height="31.747" viewBox="0 0 32 31.747">
  <path id="whatsapp" d="M16,31.747h-.006A16.03,16.03,0,0,1,8.8,30.038L1.965,31.593a1.25,1.25,0,0,1-1.5-1.488l1.482-6.735A15.8,15.8,0,0,1,0,15.893c0-.009,0-.018,0-.026A15.694,15.694,0,0,1,4.711,4.647a16.008,16.008,0,0,1,22.561,0,15.686,15.686,0,0,1,1.976,20.1,1.25,1.25,0,0,1-2.063-1.412A13.186,13.186,0,0,0,25.507,6.422,13.5,13.5,0,0,0,2.5,15.844c0,.008,0,.016,0,.024a13.36,13.36,0,0,0,1.853,6.68,1.249,1.249,0,0,1,.139.9l-1.16,5.275L8.7,27.5a1.252,1.252,0,0,1,.874.12,13.513,13.513,0,0,0,6.423,1.628H16a13.525,13.525,0,0,0,6.923-1.906,1.25,1.25,0,0,1,1.28,2.147A16.025,16.025,0,0,1,16,31.747ZM12.47,9.513c-.274-.607-.563-.628-.823-.639h-.7a1.346,1.346,0,0,0-.976.456,4.083,4.083,0,0,0-1.281,3.042,7.085,7.085,0,0,0,1.494,3.773c.183.243,2.532,4.044,6.252,5.506,3.092,1.215,3.721.973,4.392.912A3.694,3.694,0,0,0,23.3,20.83a3.036,3.036,0,0,0,.214-1.734c-.091-.152-.335-.243-.7-.426s-2.16-1.08-2.5-1.2-.579-.182-.823.183-.963,1.208-1.177,1.451-.427.274-.793.092a10.123,10.123,0,0,1-2.931-1.817,11.212,11.212,0,0,1-2.057-2.565c-.214-.365-.023-.562.161-.744.164-.163.387-.387.57-.6a2.455,2.455,0,0,0,.357-.608.67.67,0,0,0-.03-.639c-.092-.182-.794-1.986-1.12-2.708" transform="translate(0 0)" fill="#1b1c3c"/>
</svg>
