<svg id="Descargar" xmlns="http://www.w3.org/2000/svg" width="32" height="32" viewBox="0 0 32 32">
  <path id="Trazado_17" data-name="Trazado 17" d="M237.25,17.813a1.25,1.25,0,0,0,1.25-1.25V1.25a1.25,1.25,0,0,0-2.5,0V16.563A1.25,1.25,0,0,0,237.25,17.813Z" transform="translate(-221.25)" fill="#1b1c3c"/>
  <path id="Trazado_18" data-name="Trazado 18" d="M105.154,232.019l.006.006a3.754,3.754,0,0,0,5.3,0l6.92-6.893a1.25,1.25,0,0,0-1.764-1.771l-6.922,6.895a1.25,1.25,0,0,1-1.765,0l-6.791-6.889a1.25,1.25,0,0,0-1.78,1.755Z" transform="translate(-91.875 -209.062)" fill="#1b1c3c"/>
  <path id="Trazado_19" data-name="Trazado 19" d="M30.75,412a1.25,1.25,0,0,0-1.25,1.25,2.5,2.5,0,0,1-2.5,2.5H5a2.5,2.5,0,0,1-2.5-2.5,1.25,1.25,0,0,0-2.5,0,5.006,5.006,0,0,0,5,5H27a5.006,5.006,0,0,0,5-5A1.25,1.25,0,0,0,30.75,412Z" transform="translate(0 -386.25)" fill="#1b1c3c"/>
</svg>
