<svg xmlns="http://www.w3.org/2000/svg" width="20" height="20" viewBox="0 0 20 20">
  <g id="video" transform="translate(-5 -6)">
    <path id="Trazado_61" data-name="Trazado 61" d="M23.868,6H6.132A1.132,1.132,0,0,0,5,7.132v13a1.132,1.132,0,0,0,1.132,1.132H23.868A1.132,1.132,0,0,0,25,20.132v-13A1.132,1.132,0,0,0,23.868,6Zm.079,14.132a.079.079,0,0,1-.079.079H6.132a.079.079,0,0,1-.079-.079v-13a.079.079,0,0,1,.079-.079H23.868a.079.079,0,0,1,.079.079Z" fill="#fff"/>
    <path id="Trazado_62" data-name="Trazado 62" d="M24.474,39.053H9.211v-.526A.526.526,0,0,0,8.684,38H6.579a.526.526,0,0,0-.526.526v.526H5.526a.526.526,0,1,0,0,1.053h.526v.526a.526.526,0,0,0,.526.526H8.684a.526.526,0,0,0,.526-.526v-.526H24.474a.526.526,0,1,0,0-1.053ZM8.158,40.105H7.105V39.053H8.158Z" transform="translate(0 -15.158)" fill="#fff"/>
    <path id="Trazado_63" data-name="Trazado 63" d="M24.632,16.014l-6.842-3.947a.526.526,0,0,0-.789.458v7.895a.526.526,0,0,0,.789.458l6.842-3.947a.526.526,0,0,0,0-.911Zm-6.579,3.495V13.435l5.263,3.037Z" transform="translate(-5.684 -2.84)" fill="#fff"/>
  </g>
</svg>
