<svg xmlns="http://www.w3.org/2000/svg" width="20" height="19.842" viewBox="0 0 20 19.842">
  <path id="whatsapp" d="M10,19.841h0A10.019,10.019,0,0,1,5.5,18.774l-4.274.972a.781.781,0,0,1-.936-.93l.926-4.209A9.875,9.875,0,0,1,0,9.933c0-.005,0-.011,0-.016A9.809,9.809,0,0,1,2.944,2.9a10.005,10.005,0,0,1,14.1,0A9.8,9.8,0,0,1,18.28,15.47a.781.781,0,0,1-1.29-.882A8.241,8.241,0,0,0,15.942,4.014,8.435,8.435,0,0,0,1.563,9.9c0,.005,0,.01,0,.015a8.35,8.35,0,0,0,1.158,4.175.781.781,0,0,1,.087.56l-.725,3.3,3.353-.763a.783.783,0,0,1,.546.075A8.446,8.446,0,0,0,10,18.279h0a8.453,8.453,0,0,0,4.327-1.191.781.781,0,0,1,.8,1.342A10.016,10.016,0,0,1,10,19.841ZM7.794,5.946c-.171-.38-.352-.393-.515-.4H6.84a.841.841,0,0,0-.61.285,2.552,2.552,0,0,0-.8,1.9,4.428,4.428,0,0,0,.934,2.358,9.379,9.379,0,0,0,3.907,3.441c1.932.759,2.325.608,2.745.57a2.309,2.309,0,0,0,1.544-1.084,1.9,1.9,0,0,0,.134-1.084c-.057-.095-.21-.152-.438-.266s-1.35-.675-1.56-.751-.362-.114-.515.114-.6.755-.735.907-.267.171-.5.057a6.327,6.327,0,0,1-1.832-1.136,7.007,7.007,0,0,1-1.285-1.6c-.134-.228-.014-.352.1-.465s.242-.242.356-.375a1.534,1.534,0,0,0,.223-.38.419.419,0,0,0-.019-.4c-.057-.114-.5-1.241-.7-1.692" transform="translate(0 0)" fill="#1b1c3c"/>
</svg>
