<svg id="Evaluación" xmlns="http://www.w3.org/2000/svg" width="185.852" height="185.85" viewBox="0 0 185.852 185.85">
  <path id="Circulo_3" data-name="Circulo 3" d="M294.88,202.018a92.926,92.926,0,1,0,92.927-92.925,92.926,92.926,0,0,0-92.927,92.925" transform="translate(-294.88 -109.093)" fill="#e087b8"/>
  <g id="Evaluación-2" data-name="Evaluación" transform="translate(43 43)">
    <g id="_026---Idea" data-name="026---Idea" transform="translate(0)">
      <path id="Shape" d="M92.93,46.8a3.381,3.381,0,0,0-3.319-2.744H86.347l-.24-1.439a3.4,3.4,0,0,0-2.825-2.8c-.321-.051-.646-.085-.965-.128a10.312,10.312,0,0,0-1.285-7.538A6.918,6.918,0,0,0,76.019,22.9,14.385,14.385,0,0,0,61.966,11.156c-.169,0-.32.022-.48.027a6.877,6.877,0,0,0-10.52-1.308A11.6,11.6,0,0,0,44.653,8a11.738,11.738,0,0,0-9.227,4.544,8.421,8.421,0,0,0-10.762,7.567A6.958,6.958,0,0,0,20.4,26.522a6.875,6.875,0,0,0,.169,1.442,13.606,13.606,0,0,0-1.621,11.665c-.453.063-.916.118-1.352.183a3.4,3.4,0,0,0-2.847,2.8l-.24,1.444H11.237A3.381,3.381,0,0,0,7.92,46.792L.517,84.8a5.072,5.072,0,0,0,4.989,6.039H40.761c1.4,2.309,5.653,3.381,9.663,3.381,3.968,0,8.181-1.046,9.621-3.381h35.3a5.072,5.072,0,0,0,4.989-6.037ZM25.514,29.582a3.57,3.57,0,0,1,1.826-6.63,3.506,3.506,0,0,1,2.838,1.434,1.691,1.691,0,0,0,2.715-2.015,6.83,6.83,0,0,0-4.794-2.7A5.139,5.139,0,0,1,33.111,15.6a5.269,5.269,0,0,1,.615.068,11.1,11.1,0,0,0-.355,1.058,1.691,1.691,0,0,0,3.273.845,8.221,8.221,0,0,1,.877-2.117,8.348,8.348,0,0,1,7.131-4.069,8.211,8.211,0,0,1,4.478,1.352,6.872,6.872,0,0,0-.4,2.216,1.691,1.691,0,0,0,3.381,0,3.556,3.556,0,1,1,7.112,0,1.691,1.691,0,1,0,3.381,0c0-.13-.032-.254-.039-.384a10.973,10.973,0,0,1,10.012,8.463,6.86,6.86,0,0,0-2.188,1.09,1.691,1.691,0,0,0,2.029,2.7,3.564,3.564,0,0,1,5.227,4.61,3.606,3.606,0,0,1-1.6,1.481,1.691,1.691,0,0,0,.72,3.212,1.669,1.669,0,0,0,.717-.161,6.944,6.944,0,0,0,1.263-.789,7.22,7.22,0,0,1-1.43,7.21l-.041.042a7.3,7.3,0,0,1-8.622,1.582,6.71,6.71,0,0,1-.818-.511,5.758,5.758,0,0,0,.446-5.951,1.691,1.691,0,0,0-3.021,1.522,2.517,2.517,0,0,1-.815,3.187,2.551,2.551,0,0,1-3.672-.937,1.691,1.691,0,0,0-3.024,1.513A5.861,5.861,0,0,0,63.019,46.1a5.8,5.8,0,0,0,2.122-.418,10.006,10.006,0,0,0,1.981,1.352,10.414,10.414,0,0,0,7.809.722,10.776,10.776,0,0,1-6.962,4.269,1.691,1.691,0,0,0,.265,3.359,1.8,1.8,0,0,0,.269-.02,13.893,13.893,0,0,0,3-.876,15.118,15.118,0,0,1,1.261,2.9,1.743,1.743,0,0,1,.088.546,1.824,1.824,0,0,1-1.109,1.677,1.914,1.914,0,0,1-2.183-.587,10.791,10.791,0,0,0-4.948-3.288c-3.653-1.224-5.063-2.318-5.662-3.508a16.229,16.229,0,0,0,2.592-.541,1.691,1.691,0,1,0-.994-3.232,12.811,12.811,0,0,1-2.918.536,12.547,12.547,0,0,1-5.6-.845,1.691,1.691,0,0,0-1.9.472,7.239,7.239,0,0,1-11.675-8.465,1.7,1.7,0,0,0-2.909-1.743,10.558,10.558,0,0,0-.967,2.176,2.536,2.536,0,0,1-2.4-2.492V38.05a1.672,1.672,0,0,0-1.691-1.669A1.707,1.707,0,0,0,28.8,38.092a5.883,5.883,0,0,0,5.249,5.834,10.613,10.613,0,0,0,.154,1.691A10.331,10.331,0,0,1,22.511,31.468a6.815,6.815,0,0,0,1.258,1,1.691,1.691,0,0,0,1.745-2.9Zm-7.438,13.58c.779-.115,1.584-.216,2.384-.321a13.65,13.65,0,0,0,14.826,6.015,10.59,10.59,0,0,0,16.588,2.811,16.229,16.229,0,0,0,3.528.639c.817,3.1,3.177,4.974,8.135,6.635a7.492,7.492,0,0,1,3.442,2.267,5.384,5.384,0,0,0,4.084,1.919,5.134,5.134,0,0,0,2.007-.409,5.205,5.205,0,0,0,3.16-4.786,5.016,5.016,0,0,0-.257-1.6,18.48,18.48,0,0,0-1.494-3.44A14.251,14.251,0,0,0,80.1,44.3a10.588,10.588,0,0,0,.974-1.363c.566.073,1.133.137,1.7.232l6.1,36.709a58.03,58.03,0,0,0-36.76,0V58.717a1.691,1.691,0,1,0-3.381,0V79.886a58.04,58.04,0,0,0-36.76-.014ZM4.189,86.834a1.677,1.677,0,0,1-.355-1.386l7.4-38.007h2.7l-5.3,31.882A3.393,3.393,0,0,0,13,83.1a56.558,56.558,0,0,1,27.923-1.772l-.5,6.128H5.506a1.7,1.7,0,0,1-1.317-.622Zm46.235,4c-4.073,0-6.409-1.2-6.752-1.74l.582-7.016a36.129,36.129,0,0,1,5.44,1.824,1.706,1.706,0,0,0,.73.169,1.68,1.68,0,0,0,.732-.169,36.008,36.008,0,0,1,5.439-1.836l.582,7.026c-.343.538-2.68,1.741-6.752,1.741Zm46.235-4a1.7,1.7,0,0,1-1.317.622H60.434l-.507-6.14A56.575,56.575,0,0,1,87.862,83.1a3.391,3.391,0,0,0,4.348-3.785l-5.3-31.876h2.7l7.4,38A1.677,1.677,0,0,1,96.659,86.834Z" transform="translate(-0.424 5.524)" fill="#fff"/>
      <path id="Shape-2" data-name="Shape" d="M26.913,24.548a1.691,1.691,0,0,0-.12,2.387,10.194,10.194,0,0,0,5.418,3.124A5.036,5.036,0,0,1,28.1,32.181a1.691,1.691,0,0,0,0,3.381,8.384,8.384,0,0,0,7.876-5.422,10.2,10.2,0,0,0,8.346-8.115A1.691,1.691,0,1,0,41,21.39a6.739,6.739,0,0,1-2.8,4.292,6.9,6.9,0,0,1-8.9-1.014,1.691,1.691,0,0,0-2.387-.12Z" transform="translate(17.484 13.802)" fill="#fff"/>
      <path id="Shape-3" data-name="Shape" d="M23.891,25.467a1.691,1.691,0,0,0,1.691-1.691,4.4,4.4,0,0,1,4.4-4.4,1.691,1.691,0,0,0,0-3.381A7.785,7.785,0,0,0,22.2,23.777a1.691,1.691,0,0,0,1.691,1.691Z" transform="translate(14.614 11.049)" fill="#fff"/>
      <path id="Shape-4" data-name="Shape" d="M32.381,3.381V1.691a1.691,1.691,0,1,0-3.381,0V3.381a1.691,1.691,0,1,0,3.381,0Z" transform="translate(19.31)" fill="#fff"/>
      <path id="Shape-5" data-name="Shape" d="M47.311,7.387,45.621,9.077a1.691,1.691,0,1,0,2.39,2.39L49.7,9.777a1.691,1.691,0,1,0-2.39-2.39Z" transform="translate(30.431 4.745)" fill="#fff"/>
      <path id="Shape-6" data-name="Shape" d="M15.273,11.963a1.691,1.691,0,0,0,1.2-2.886L14.777,7.387a1.691,1.691,0,1,0-2.39,2.39l1.691,1.691a1.691,1.691,0,0,0,1.2.5Z" transform="translate(7.481 4.745)" fill="#fff"/>
      <path id="Shape-7" data-name="Shape" d="M23.07,8.984a1.714,1.714,0,0,0,.647-.128,1.691,1.691,0,0,0,.915-2.21L22.69,1.96a1.691,1.691,0,1,0-3.122,1.295l1.941,4.686A1.691,1.691,0,0,0,23.07,8.984Z" transform="translate(12.697 0.61)" fill="#fff"/>
      <path id="Shape-8" data-name="Shape" d="M41.7,1.032a1.691,1.691,0,0,0-2.208.915L37.548,6.632a1.691,1.691,0,0,0,.915,2.211,1.714,1.714,0,0,0,.647.128,1.691,1.691,0,0,0,1.562-1.043l1.941-4.686A1.691,1.691,0,0,0,41.7,1.032Z" transform="translate(25.123 0.623)" fill="#fff"/>
      <path id="Shape-9" data-name="Shape" d="M51.018,19.757a1.691,1.691,0,0,0,.647-.13l4.685-1.941a1.691,1.691,0,1,0-1.293-3.124L50.37,16.5a1.691,1.691,0,0,0,.647,3.254Z" transform="translate(33.343 9.967)" fill="#fff"/>
      <path id="Shape-10" data-name="Shape" d="M11.632,19.627A1.691,1.691,0,1,0,12.927,16.5L8.241,14.562a1.691,1.691,0,1,0-1.293,3.124Z" transform="translate(3.36 9.967)" fill="#fff"/>
    </g>
  </g>
</svg>
