<svg id="Secuencia_" data-name="Secuencia " xmlns="http://www.w3.org/2000/svg" width="185.85" height="185.85" viewBox="0 0 185.85 185.85">
  <path id="Circulo_2" data-name="Circulo 2" d="M143.989,149.818a92.925,92.925,0,1,0,92.925-92.925,92.926,92.926,0,0,0-92.925,92.925" transform="translate(-143.989 -56.893)" fill="#a369b8"/>
  <g id="aprendizaje" transform="translate(43 43)">
    <path id="Trazado_64" data-name="Trazado 64" d="M65.3,50.914l.255.073a1.616,1.616,0,0,0,2.06-1.55V22.017a1.612,1.612,0,0,0-1.168-1.55l-.255-.073h0a27.485,27.485,0,0,0-22.066,3.113l-2.315,1.445-2.316-1.447a27.475,27.475,0,0,0-22.066-3.113h0l-.255.073A1.616,1.616,0,0,0,16,22.017v27.42a1.614,1.614,0,0,0,2.058,1.552l.252-.073a24.232,24.232,0,0,1,19.47,2.747l3.171,1.982c.013.008.029.011.042.018s.021.018.032.024a1.859,1.859,0,0,0,.221.089,1.5,1.5,0,0,0,.14.056,1.7,1.7,0,0,0,.421.056,1.626,1.626,0,0,0,.421-.058,1.5,1.5,0,0,0,.14-.056,1.436,1.436,0,0,0,.221-.089c.011-.006.021-.018.032-.024s.029-.01.042-.018l3.171-1.982A24.248,24.248,0,0,1,65.3,50.914ZM24.944,46.761a27.4,27.4,0,0,0-5.718.6V23.252a24.247,24.247,0,0,1,18.555,2.989l2.413,1.508V51.364l-.7-.439A27.466,27.466,0,0,0,24.944,46.761Zm19.179,4.165-.7.439V27.749l2.413-1.508a24.247,24.247,0,0,1,18.555-2.989V47.364a27.489,27.489,0,0,0-20.265,3.561Z" transform="translate(8.193 10.242)" fill="#fff"/>
    <path id="Trazado_65" data-name="Trazado 65" d="M49.644,34.5l.315-3.21a27.308,27.308,0,0,0-15.424,3.021l1.5,2.856A24.124,24.124,0,0,1,49.644,34.5Z" transform="translate(19.553 17.486)" fill="#fff"/>
    <path id="Trazado_66" data-name="Trazado 66" d="M49.644,28.5l.315-3.21a27.281,27.281,0,0,0-15.424,3.021l1.5,2.856A24.1,24.1,0,0,1,49.644,28.5Z" transform="translate(19.553 13.808)" fill="#fff"/>
    <path id="Trazado_67" data-name="Trazado 67" d="M19.9,31.291l.315,3.21a24.11,24.11,0,0,1,13.608,2.666l1.5-2.856A27.374,27.374,0,0,0,19.9,31.291Z" transform="translate(10.584 17.486)" fill="#fff"/>
    <path id="Trazado_68" data-name="Trazado 68" d="M19.9,25.292l.315,3.21a24.1,24.1,0,0,1,13.608,2.666l1.5-2.856A27.347,27.347,0,0,0,19.9,25.292Z" transform="translate(10.584 13.809)" fill="#fff"/>
    <path id="Trazado_69" data-name="Trazado 69" d="M49.723,10.726a1.613,1.613,0,0,0-1.285-1.082L41.486,8.581,38.362,1.927a1.611,1.611,0,0,0-2.918,0L32.32,8.581,25.368,9.644a1.614,1.614,0,0,0-.911,2.721l5.076,5.2-1.2,7.366A1.614,1.614,0,0,0,30.7,26.607l6.2-3.427,6.2,3.426a1.613,1.613,0,0,0,2.371-1.673l-1.2-7.366,5.076-5.2a1.605,1.605,0,0,0,.376-1.637ZM41.394,15.9a1.611,1.611,0,0,0-.437,1.385l.8,4.892-4.071-2.25a1.606,1.606,0,0,0-1.558,0l-4.071,2.25.8-4.892a1.615,1.615,0,0,0-.437-1.385l-3.453-3.539,4.7-.718a1.616,1.616,0,0,0,1.216-.908L36.9,6.41l2.029,4.323a1.612,1.612,0,0,0,1.216.908l4.7.718Z" transform="translate(13.096 -1)" fill="#fff"/>
    <path id="Trazado_70" data-name="Trazado 70" d="M6.688,61.587a1.665,1.665,0,0,1,.763,1.361v4.084a1.612,1.612,0,0,0,1.613,1.613h9.678a1.612,1.612,0,0,0,1.613-1.613V62.945A1.63,1.63,0,0,1,21.1,61.6,12.9,12.9,0,0,0,13.684,38,13.047,13.047,0,0,0,1.009,50.429,12.829,12.829,0,0,0,6.688,61.587Zm7.048-20.36a9.67,9.67,0,0,1,5.563,17.7,4.847,4.847,0,0,0-2.171,4.021v2.474H10.677V62.948a4.884,4.884,0,0,0-2.184-4.034A9.633,9.633,0,0,1,4.23,50.545,9.788,9.788,0,0,1,13.737,41.227Z" transform="translate(-1.001 21.678)" fill="#fff"/>
    <path id="Trazado_71" data-name="Trazado 71" d="M8.226,48.452a3.229,3.229,0,0,1,3.226-3.226V42A6.458,6.458,0,0,0,5,48.452v1.613H8.226Z" transform="translate(1.451 24.13)" fill="#fff"/>
    <path id="Trazado_72" data-name="Trazado 72" d="M6,58h9.678v3.226H6Z" transform="translate(2.064 33.936)" fill="#fff"/>
    <path id="Trazado_73" data-name="Trazado 73" d="M7,61h6.452v3.226H7Z" transform="translate(2.677 35.775)" fill="#fff"/>
    <path id="Trazado_74" data-name="Trazado 74" d="M30.9,13.543l-1.421-2.9A41.694,41.694,0,0,0,6,48.314H9.226A38.486,38.486,0,0,1,30.9,13.543Z" transform="translate(2.064 4.912)" fill="#fff"/>
    <path id="Trazado_75" data-name="Trazado 75" d="M41.562,60.941A38.365,38.365,0,0,1,18.337,53.2L16.4,55.781a41.571,41.571,0,0,0,25.162,8.386,42,42,0,0,0,11.778-1.677l-.9-3.1A38.747,38.747,0,0,1,41.562,60.941Z" transform="translate(8.438 30.996)" fill="#fff"/>
    <path id="Trazado_76" data-name="Trazado 76" d="M66.945,58.723A42,42,0,0,0,42.687,10.081l-1.266,2.966A38.779,38.779,0,0,1,63.815,57.952Z" transform="translate(23.774 4.566)" fill="#fff"/>
    <path id="Trazado_77" data-name="Trazado 77" d="M54.065,46a8.065,8.065,0,1,0,8.065,8.065A8.074,8.074,0,0,0,54.065,46Zm0,12.9A4.839,4.839,0,1,1,58.9,54.065,4.845,4.845,0,0,1,54.065,58.9Z" transform="translate(26.58 26.581)" fill="#fff"/>
    <path id="Trazado_78" data-name="Trazado 78" d="M74.484,53.516H72.029a15.116,15.116,0,0,0-.582-1.408l1.735-1.737a3.23,3.23,0,0,0,0-4.563L70.9,43.527a3.228,3.228,0,0,0-4.561,0L64.6,45.263a14.516,14.516,0,0,0-1.408-.582V42.226A3.229,3.229,0,0,0,59.97,39H56.744a3.229,3.229,0,0,0-3.226,3.226v2.455a14.518,14.518,0,0,0-1.408.582l-1.737-1.736a3.228,3.228,0,0,0-4.561,0l-2.281,2.281a3.23,3.23,0,0,0,0,4.563l1.736,1.737a14.69,14.69,0,0,0-.582,1.408H42.226A3.229,3.229,0,0,0,39,56.742v3.226a3.229,3.229,0,0,0,3.226,3.226h2.455a15.112,15.112,0,0,0,.582,1.408l-1.736,1.737a3.23,3.23,0,0,0,0,4.563l2.281,2.281a3.228,3.228,0,0,0,4.561,0l1.737-1.735a14.518,14.518,0,0,0,1.408.582v2.455A3.229,3.229,0,0,0,56.74,77.71h3.226a3.229,3.229,0,0,0,3.226-3.226V72.029a14.518,14.518,0,0,0,1.408-.582l1.737,1.735a3.228,3.228,0,0,0,4.561,0L73.179,70.9a3.23,3.23,0,0,0,0-4.563L71.444,64.6a14.688,14.688,0,0,0,.582-1.408h2.458a3.229,3.229,0,0,0,3.226-3.226V56.742A3.229,3.229,0,0,0,74.484,53.516Zm0,6.452H70.836a1.612,1.612,0,0,0-1.561,1.21,11.233,11.233,0,0,1-1.2,2.9,1.615,1.615,0,0,0,.248,1.96L70.9,68.621,68.62,70.9l-2.581-2.579a1.613,1.613,0,0,0-1.961-.248,11.223,11.223,0,0,1-2.9,1.2,1.612,1.612,0,0,0-1.208,1.561v3.648H56.742V70.836a1.613,1.613,0,0,0-1.21-1.561,11.224,11.224,0,0,1-2.9-1.2,1.613,1.613,0,0,0-1.961.248L48.089,70.9,45.808,68.62l2.581-2.579a1.613,1.613,0,0,0,.248-1.96,11.233,11.233,0,0,1-1.2-2.9,1.61,1.61,0,0,0-1.56-1.21H42.226V56.742h3.648a1.612,1.612,0,0,0,1.561-1.21,11.233,11.233,0,0,1,1.2-2.9,1.615,1.615,0,0,0-.248-1.96L45.81,48.089l2.281-2.281,2.581,2.579a1.611,1.611,0,0,0,1.961.248,11.224,11.224,0,0,1,2.9-1.2,1.613,1.613,0,0,0,1.21-1.561V42.226H59.97v3.648a1.613,1.613,0,0,0,1.21,1.561,11.223,11.223,0,0,1,2.9,1.2,1.611,1.611,0,0,0,1.961-.248l2.581-2.579L70.9,48.09l-2.581,2.579a1.613,1.613,0,0,0-.248,1.96,11.233,11.233,0,0,1,1.2,2.9,1.613,1.613,0,0,0,1.561,1.21h3.645Z" transform="translate(22.29 22.291)" fill="#fff"/>
  </g>
</svg>
