<svg id="Descargar" xmlns="http://www.w3.org/2000/svg" width="20" height="20" viewBox="0 0 20 20">
  <path id="Trazado_17" data-name="Trazado 17" d="M236.781,11.133a.781.781,0,0,0,.781-.781V.781a.781.781,0,0,0-1.562,0v9.57A.781.781,0,0,0,236.781,11.133Z" transform="translate(-226.781)" fill="#1b1c3c"/>
  <path id="Trazado_18" data-name="Trazado 18" d="M102.471,228.637l0,0a2.346,2.346,0,0,0,3.313,0l4.325-4.308a.781.781,0,0,0-1.1-1.107l-4.326,4.309a.781.781,0,0,1-1.1,0l-4.244-4.306a.781.781,0,0,0-1.113,1.1Z" transform="translate(-94.171 -214.288)" fill="#1b1c3c"/>
  <path id="Trazado_19" data-name="Trazado 19" d="M19.219,412a.781.781,0,0,0-.781.781,1.564,1.564,0,0,1-1.562,1.563H3.125a1.564,1.564,0,0,1-1.562-1.562.781.781,0,0,0-1.562,0,3.129,3.129,0,0,0,3.125,3.125h13.75A3.129,3.129,0,0,0,20,412.781.781.781,0,0,0,19.219,412Z" transform="translate(0 -395.906)" fill="#1b1c3c"/>
</svg>
