<svg xmlns="http://www.w3.org/2000/svg" xmlns:xlink="http://www.w3.org/1999/xlink" width="904.208" height="710" viewBox="0 0 904.208 710">
  <defs>
    <filter id="Diagrama_" x="0" y="0" width="904.208" height="710" filterUnits="userSpaceOnUse">
      <feOffset dx="3" dy="3" input="SourceAlpha"/>
      <feGaussianBlur stdDeviation="10" result="blur"/>
      <feFlood flood-opacity="0.161"/>
      <feComposite operator="in" in2="blur"/>
      <feComposite in="SourceGraphic"/>
    </filter>
  </defs>
  <g id="Diagrama_2" data-name="Diagrama 2" transform="translate(27 27.001)">
    <g transform="matrix(1, 0, 0, 1, -27, -27)" filter="url(#Diagrama_)">
      <path id="Diagrama_2-2" data-name="Diagrama " d="M365.991,0C260.683,0,174.054,81.49,165.824,184.713c-5.521,67.067,21.7,134.212,86.932,181.848,78.81,57.513,39.645,180.853-55.831,184.729a102.2,102.2,0,0,1-92.375-50.405l-25.886-1.024a2.939,2.939,0,0,1-2.371-4.513l14.773-23.421a49.26,49.26,0,0,0-41.646-22.738c-33.783,0-57.665,33.221-46.747,65.064C29.732,593.01,104.442,649.817,192.22,650h.888c3.41-.008,6.857-.1,10.3-.281C310.748,644.1,395.12,553.509,393.472,446.04a200.806,200.806,0,0,0-83.938-160.077c-82.726-53.98-46.159-183.221,52.173-187.253a102.056,102.056,0,0,1,83.422,37.509h28.2a2.952,2.952,0,0,1,2.562,4.419l-14.147,24.485c25.325,67.45-38.882,103.53,4.17,209.84,29.812,73.6,102.047,125.657,186.229,125.657,87.065,0,161.348-55.681,189.131-133.321a49.32,49.32,0,0,0-46.406-65.975h-.019c-38.019,0-46.88,34.756-50.066,41.608l12.839,24.445a2.948,2.948,0,0,1-2.731,4.3l-29.034-1.138A101.95,101.95,0,0,1,647.9,401.91c-51.7-2.105-94.2-43.352-97.7-94.973-2.765-40.887,16.613-47.479,16.613-106.124C566.8,90.284,476.877,0,365.991,0Z" transform="translate(27 27)" fill="#fff" opacity="0.9"/>
    </g>
    <g id="Evaluación" transform="translate(559 206.999)">
      <path id="Circulo_3" data-name="Circulo 3" d="M294.88,202.018a92.926,92.926,0,1,0,92.927-92.925,92.926,92.926,0,0,0-92.927,92.925" transform="translate(-294.88 -109.093)" fill="#e087b8"/>
      <g id="Evaluación-2" data-name="Evaluación" transform="translate(43 43)">
        <g id="_026---Idea" data-name="026---Idea" transform="translate(0)">
          <path id="Shape" d="M92.93,46.8a3.381,3.381,0,0,0-3.319-2.744H86.347l-.24-1.439a3.4,3.4,0,0,0-2.825-2.8c-.321-.051-.646-.085-.965-.128a10.312,10.312,0,0,0-1.285-7.538A6.918,6.918,0,0,0,76.019,22.9,14.385,14.385,0,0,0,61.966,11.156c-.169,0-.32.022-.48.027a6.877,6.877,0,0,0-10.52-1.308A11.6,11.6,0,0,0,44.653,8a11.738,11.738,0,0,0-9.227,4.544,8.421,8.421,0,0,0-10.762,7.567A6.958,6.958,0,0,0,20.4,26.522a6.875,6.875,0,0,0,.169,1.442,13.606,13.606,0,0,0-1.621,11.665c-.453.063-.916.118-1.352.183a3.4,3.4,0,0,0-2.847,2.8l-.24,1.444H11.237A3.381,3.381,0,0,0,7.92,46.792L.517,84.8a5.072,5.072,0,0,0,4.989,6.039H40.761c1.4,2.309,5.653,3.381,9.663,3.381,3.968,0,8.181-1.046,9.621-3.381h35.3a5.072,5.072,0,0,0,4.989-6.037ZM25.514,29.582a3.57,3.57,0,0,1,1.826-6.63,3.506,3.506,0,0,1,2.838,1.434,1.691,1.691,0,0,0,2.715-2.015,6.83,6.83,0,0,0-4.794-2.7A5.139,5.139,0,0,1,33.111,15.6a5.269,5.269,0,0,1,.615.068,11.1,11.1,0,0,0-.355,1.058,1.691,1.691,0,0,0,3.273.845,8.221,8.221,0,0,1,.877-2.117,8.348,8.348,0,0,1,7.131-4.069,8.211,8.211,0,0,1,4.478,1.352,6.872,6.872,0,0,0-.4,2.216,1.691,1.691,0,0,0,3.381,0,3.556,3.556,0,1,1,7.112,0,1.691,1.691,0,1,0,3.381,0c0-.13-.032-.254-.039-.384a10.973,10.973,0,0,1,10.012,8.463,6.86,6.86,0,0,0-2.188,1.09,1.691,1.691,0,0,0,2.029,2.7,3.564,3.564,0,0,1,5.227,4.61,3.606,3.606,0,0,1-1.6,1.481,1.691,1.691,0,0,0,.72,3.212,1.669,1.669,0,0,0,.717-.161,6.944,6.944,0,0,0,1.263-.789,7.22,7.22,0,0,1-1.43,7.21l-.041.042a7.3,7.3,0,0,1-8.622,1.582,6.71,6.71,0,0,1-.818-.511,5.758,5.758,0,0,0,.446-5.951,1.691,1.691,0,0,0-3.021,1.522,2.517,2.517,0,0,1-.815,3.187,2.551,2.551,0,0,1-3.672-.937,1.691,1.691,0,0,0-3.024,1.513A5.861,5.861,0,0,0,63.019,46.1a5.8,5.8,0,0,0,2.122-.418,10.006,10.006,0,0,0,1.981,1.352,10.414,10.414,0,0,0,7.809.722,10.776,10.776,0,0,1-6.962,4.269,1.691,1.691,0,0,0,.265,3.359,1.8,1.8,0,0,0,.269-.02,13.893,13.893,0,0,0,3-.876,15.118,15.118,0,0,1,1.261,2.9,1.743,1.743,0,0,1,.088.546,1.824,1.824,0,0,1-1.109,1.677,1.914,1.914,0,0,1-2.183-.587,10.791,10.791,0,0,0-4.948-3.288c-3.653-1.224-5.063-2.318-5.662-3.508a16.229,16.229,0,0,0,2.592-.541,1.691,1.691,0,1,0-.994-3.232,12.811,12.811,0,0,1-2.918.536,12.547,12.547,0,0,1-5.6-.845,1.691,1.691,0,0,0-1.9.472,7.239,7.239,0,0,1-11.675-8.465,1.7,1.7,0,0,0-2.909-1.743,10.558,10.558,0,0,0-.967,2.176,2.536,2.536,0,0,1-2.4-2.492V38.05a1.672,1.672,0,0,0-1.691-1.669A1.707,1.707,0,0,0,28.8,38.092a5.883,5.883,0,0,0,5.249,5.834,10.613,10.613,0,0,0,.154,1.691A10.331,10.331,0,0,1,22.511,31.468a6.815,6.815,0,0,0,1.258,1,1.691,1.691,0,0,0,1.745-2.9Zm-7.438,13.58c.779-.115,1.584-.216,2.384-.321a13.65,13.65,0,0,0,14.826,6.015,10.59,10.59,0,0,0,16.588,2.811,16.229,16.229,0,0,0,3.528.639c.817,3.1,3.177,4.974,8.135,6.635a7.492,7.492,0,0,1,3.442,2.267,5.384,5.384,0,0,0,4.084,1.919,5.134,5.134,0,0,0,2.007-.409,5.205,5.205,0,0,0,3.16-4.786,5.016,5.016,0,0,0-.257-1.6,18.48,18.48,0,0,0-1.494-3.44A14.251,14.251,0,0,0,80.1,44.3a10.588,10.588,0,0,0,.974-1.363c.566.073,1.133.137,1.7.232l6.1,36.709a58.03,58.03,0,0,0-36.76,0V58.717a1.691,1.691,0,1,0-3.381,0V79.886a58.04,58.04,0,0,0-36.76-.014ZM4.189,86.834a1.677,1.677,0,0,1-.355-1.386l7.4-38.007h2.7l-5.3,31.882A3.393,3.393,0,0,0,13,83.1a56.558,56.558,0,0,1,27.923-1.772l-.5,6.128H5.506a1.7,1.7,0,0,1-1.317-.622Zm46.235,4c-4.073,0-6.409-1.2-6.752-1.74l.582-7.016a36.129,36.129,0,0,1,5.44,1.824,1.706,1.706,0,0,0,.73.169,1.68,1.68,0,0,0,.732-.169,36.008,36.008,0,0,1,5.439-1.836l.582,7.026c-.343.538-2.68,1.741-6.752,1.741Zm46.235-4a1.7,1.7,0,0,1-1.317.622H60.434l-.507-6.14A56.575,56.575,0,0,1,87.862,83.1a3.391,3.391,0,0,0,4.348-3.785l-5.3-31.876h2.7l7.4,38A1.677,1.677,0,0,1,96.659,86.834Z" transform="translate(-0.424 5.524)" fill="#fff"/>
          <path id="Shape-2" data-name="Shape" d="M26.913,24.548a1.691,1.691,0,0,0-.12,2.387,10.194,10.194,0,0,0,5.418,3.124A5.036,5.036,0,0,1,28.1,32.181a1.691,1.691,0,0,0,0,3.381,8.384,8.384,0,0,0,7.876-5.422,10.2,10.2,0,0,0,8.346-8.115A1.691,1.691,0,1,0,41,21.39a6.739,6.739,0,0,1-2.8,4.292,6.9,6.9,0,0,1-8.9-1.014,1.691,1.691,0,0,0-2.387-.12Z" transform="translate(17.484 13.802)" fill="#fff"/>
          <path id="Shape-3" data-name="Shape" d="M23.891,25.467a1.691,1.691,0,0,0,1.691-1.691,4.4,4.4,0,0,1,4.4-4.4,1.691,1.691,0,0,0,0-3.381A7.785,7.785,0,0,0,22.2,23.777a1.691,1.691,0,0,0,1.691,1.691Z" transform="translate(14.614 11.049)" fill="#fff"/>
          <path id="Shape-4" data-name="Shape" d="M32.381,3.381V1.691a1.691,1.691,0,1,0-3.381,0V3.381a1.691,1.691,0,1,0,3.381,0Z" transform="translate(19.31)" fill="#fff"/>
          <path id="Shape-5" data-name="Shape" d="M47.311,7.387,45.621,9.077a1.691,1.691,0,1,0,2.39,2.39L49.7,9.777a1.691,1.691,0,1,0-2.39-2.39Z" transform="translate(30.431 4.745)" fill="#fff"/>
          <path id="Shape-6" data-name="Shape" d="M15.273,11.963a1.691,1.691,0,0,0,1.2-2.886L14.777,7.387a1.691,1.691,0,1,0-2.39,2.39l1.691,1.691a1.691,1.691,0,0,0,1.2.5Z" transform="translate(7.481 4.745)" fill="#fff"/>
          <path id="Shape-7" data-name="Shape" d="M23.07,8.984a1.714,1.714,0,0,0,.647-.128,1.691,1.691,0,0,0,.915-2.21L22.69,1.96a1.691,1.691,0,1,0-3.122,1.295l1.941,4.686A1.691,1.691,0,0,0,23.07,8.984Z" transform="translate(12.697 0.61)" fill="#fff"/>
          <path id="Shape-8" data-name="Shape" d="M41.7,1.032a1.691,1.691,0,0,0-2.208.915L37.548,6.632a1.691,1.691,0,0,0,.915,2.211,1.714,1.714,0,0,0,.647.128,1.691,1.691,0,0,0,1.562-1.043l1.941-4.686A1.691,1.691,0,0,0,41.7,1.032Z" transform="translate(25.123 0.623)" fill="#fff"/>
          <path id="Shape-9" data-name="Shape" d="M51.018,19.757a1.691,1.691,0,0,0,.647-.13l4.685-1.941a1.691,1.691,0,1,0-1.293-3.124L50.37,16.5a1.691,1.691,0,0,0,.647,3.254Z" transform="translate(33.343 9.967)" fill="#fff"/>
          <path id="Shape-10" data-name="Shape" d="M11.632,19.627A1.691,1.691,0,1,0,12.927,16.5L8.241,14.562a1.691,1.691,0,1,0-1.293,3.124Z" transform="translate(3.36 9.967)" fill="#fff"/>
        </g>
      </g>
    </g>
    <g id="Secuencia_" data-name="Secuencia " transform="translate(273 107.999)">
      <path id="Circulo_2" data-name="Circulo 2" d="M143.989,149.818a92.925,92.925,0,1,0,92.925-92.925,92.926,92.926,0,0,0-92.925,92.925" transform="translate(-143.989 -56.893)" fill="#a369b8"/>
      <g id="aprendizaje" transform="translate(43 43)">
        <path id="Trazado_64" data-name="Trazado 64" d="M65.3,50.914l.255.073a1.616,1.616,0,0,0,2.06-1.55V22.017a1.612,1.612,0,0,0-1.168-1.55l-.255-.073h0a27.485,27.485,0,0,0-22.066,3.113l-2.315,1.445-2.316-1.447a27.475,27.475,0,0,0-22.066-3.113h0l-.255.073A1.616,1.616,0,0,0,16,22.017v27.42a1.614,1.614,0,0,0,2.058,1.552l.252-.073a24.232,24.232,0,0,1,19.47,2.747l3.171,1.982c.013.008.029.011.042.018s.021.018.032.024a1.859,1.859,0,0,0,.221.089,1.5,1.5,0,0,0,.14.056,1.7,1.7,0,0,0,.421.056,1.626,1.626,0,0,0,.421-.058,1.5,1.5,0,0,0,.14-.056,1.436,1.436,0,0,0,.221-.089c.011-.006.021-.018.032-.024s.029-.01.042-.018l3.171-1.982A24.248,24.248,0,0,1,65.3,50.914ZM24.944,46.761a27.4,27.4,0,0,0-5.718.6V23.252a24.247,24.247,0,0,1,18.555,2.989l2.413,1.508V51.364l-.7-.439A27.466,27.466,0,0,0,24.944,46.761Zm19.179,4.165-.7.439V27.749l2.413-1.508a24.247,24.247,0,0,1,18.555-2.989V47.364a27.489,27.489,0,0,0-20.265,3.561Z" transform="translate(8.193 10.242)" fill="#fff"/>
        <path id="Trazado_65" data-name="Trazado 65" d="M49.644,34.5l.315-3.21a27.308,27.308,0,0,0-15.424,3.021l1.5,2.856A24.124,24.124,0,0,1,49.644,34.5Z" transform="translate(19.553 17.486)" fill="#fff"/>
        <path id="Trazado_66" data-name="Trazado 66" d="M49.644,28.5l.315-3.21a27.281,27.281,0,0,0-15.424,3.021l1.5,2.856A24.1,24.1,0,0,1,49.644,28.5Z" transform="translate(19.553 13.808)" fill="#fff"/>
        <path id="Trazado_67" data-name="Trazado 67" d="M19.9,31.291l.315,3.21a24.11,24.11,0,0,1,13.608,2.666l1.5-2.856A27.374,27.374,0,0,0,19.9,31.291Z" transform="translate(10.584 17.486)" fill="#fff"/>
        <path id="Trazado_68" data-name="Trazado 68" d="M19.9,25.292l.315,3.21a24.1,24.1,0,0,1,13.608,2.666l1.5-2.856A27.347,27.347,0,0,0,19.9,25.292Z" transform="translate(10.584 13.809)" fill="#fff"/>
        <path id="Trazado_69" data-name="Trazado 69" d="M49.723,10.726a1.613,1.613,0,0,0-1.285-1.082L41.486,8.581,38.362,1.927a1.611,1.611,0,0,0-2.918,0L32.32,8.581,25.368,9.644a1.614,1.614,0,0,0-.911,2.721l5.076,5.2-1.2,7.366A1.614,1.614,0,0,0,30.7,26.607l6.2-3.427,6.2,3.426a1.613,1.613,0,0,0,2.371-1.673l-1.2-7.366,5.076-5.2a1.605,1.605,0,0,0,.376-1.637ZM41.394,15.9a1.611,1.611,0,0,0-.437,1.385l.8,4.892-4.071-2.25a1.606,1.606,0,0,0-1.558,0l-4.071,2.25.8-4.892a1.615,1.615,0,0,0-.437-1.385l-3.453-3.539,4.7-.718a1.616,1.616,0,0,0,1.216-.908L36.9,6.41l2.029,4.323a1.612,1.612,0,0,0,1.216.908l4.7.718Z" transform="translate(13.096 -1)" fill="#fff"/>
        <path id="Trazado_70" data-name="Trazado 70" d="M6.688,61.587a1.665,1.665,0,0,1,.763,1.361v4.084a1.612,1.612,0,0,0,1.613,1.613h9.678a1.612,1.612,0,0,0,1.613-1.613V62.945A1.63,1.63,0,0,1,21.1,61.6,12.9,12.9,0,0,0,13.684,38,13.047,13.047,0,0,0,1.009,50.429,12.829,12.829,0,0,0,6.688,61.587Zm7.048-20.36a9.67,9.67,0,0,1,5.563,17.7,4.847,4.847,0,0,0-2.171,4.021v2.474H10.677V62.948a4.884,4.884,0,0,0-2.184-4.034A9.633,9.633,0,0,1,4.23,50.545,9.788,9.788,0,0,1,13.737,41.227Z" transform="translate(-1.001 21.678)" fill="#fff"/>
        <path id="Trazado_71" data-name="Trazado 71" d="M8.226,48.452a3.229,3.229,0,0,1,3.226-3.226V42A6.458,6.458,0,0,0,5,48.452v1.613H8.226Z" transform="translate(1.451 24.13)" fill="#fff"/>
        <path id="Trazado_72" data-name="Trazado 72" d="M6,58h9.678v3.226H6Z" transform="translate(2.064 33.936)" fill="#fff"/>
        <path id="Trazado_73" data-name="Trazado 73" d="M7,61h6.452v3.226H7Z" transform="translate(2.677 35.775)" fill="#fff"/>
        <path id="Trazado_74" data-name="Trazado 74" d="M30.9,13.543l-1.421-2.9A41.694,41.694,0,0,0,6,48.314H9.226A38.486,38.486,0,0,1,30.9,13.543Z" transform="translate(2.064 4.912)" fill="#fff"/>
        <path id="Trazado_75" data-name="Trazado 75" d="M41.562,60.941A38.365,38.365,0,0,1,18.337,53.2L16.4,55.781a41.571,41.571,0,0,0,25.162,8.386,42,42,0,0,0,11.778-1.677l-.9-3.1A38.747,38.747,0,0,1,41.562,60.941Z" transform="translate(8.438 30.996)" fill="#fff"/>
        <path id="Trazado_76" data-name="Trazado 76" d="M66.945,58.723A42,42,0,0,0,42.687,10.081l-1.266,2.966A38.779,38.779,0,0,1,63.815,57.952Z" transform="translate(23.774 4.566)" fill="#fff"/>
        <path id="Trazado_77" data-name="Trazado 77" d="M54.065,46a8.065,8.065,0,1,0,8.065,8.065A8.074,8.074,0,0,0,54.065,46Zm0,12.9A4.839,4.839,0,1,1,58.9,54.065,4.845,4.845,0,0,1,54.065,58.9Z" transform="translate(26.58 26.581)" fill="#fff"/>
        <path id="Trazado_78" data-name="Trazado 78" d="M74.484,53.516H72.029a15.116,15.116,0,0,0-.582-1.408l1.735-1.737a3.23,3.23,0,0,0,0-4.563L70.9,43.527a3.228,3.228,0,0,0-4.561,0L64.6,45.263a14.516,14.516,0,0,0-1.408-.582V42.226A3.229,3.229,0,0,0,59.97,39H56.744a3.229,3.229,0,0,0-3.226,3.226v2.455a14.518,14.518,0,0,0-1.408.582l-1.737-1.736a3.228,3.228,0,0,0-4.561,0l-2.281,2.281a3.23,3.23,0,0,0,0,4.563l1.736,1.737a14.69,14.69,0,0,0-.582,1.408H42.226A3.229,3.229,0,0,0,39,56.742v3.226a3.229,3.229,0,0,0,3.226,3.226h2.455a15.112,15.112,0,0,0,.582,1.408l-1.736,1.737a3.23,3.23,0,0,0,0,4.563l2.281,2.281a3.228,3.228,0,0,0,4.561,0l1.737-1.735a14.518,14.518,0,0,0,1.408.582v2.455A3.229,3.229,0,0,0,56.74,77.71h3.226a3.229,3.229,0,0,0,3.226-3.226V72.029a14.518,14.518,0,0,0,1.408-.582l1.737,1.735a3.228,3.228,0,0,0,4.561,0L73.179,70.9a3.23,3.23,0,0,0,0-4.563L71.444,64.6a14.688,14.688,0,0,0,.582-1.408h2.458a3.229,3.229,0,0,0,3.226-3.226V56.742A3.229,3.229,0,0,0,74.484,53.516Zm0,6.452H70.836a1.612,1.612,0,0,0-1.561,1.21,11.233,11.233,0,0,1-1.2,2.9,1.615,1.615,0,0,0,.248,1.96L70.9,68.621,68.62,70.9l-2.581-2.579a1.613,1.613,0,0,0-1.961-.248,11.223,11.223,0,0,1-2.9,1.2,1.612,1.612,0,0,0-1.208,1.561v3.648H56.742V70.836a1.613,1.613,0,0,0-1.21-1.561,11.224,11.224,0,0,1-2.9-1.2,1.613,1.613,0,0,0-1.961.248L48.089,70.9,45.808,68.62l2.581-2.579a1.613,1.613,0,0,0,.248-1.96,11.233,11.233,0,0,1-1.2-2.9,1.61,1.61,0,0,0-1.56-1.21H42.226V56.742h3.648a1.612,1.612,0,0,0,1.561-1.21,11.233,11.233,0,0,1,1.2-2.9,1.615,1.615,0,0,0-.248-1.96L45.81,48.089l2.281-2.281,2.581,2.579a1.611,1.611,0,0,0,1.961.248,11.224,11.224,0,0,1,2.9-1.2,1.613,1.613,0,0,0,1.21-1.561V42.226H59.97v3.648a1.613,1.613,0,0,0,1.21,1.561,11.223,11.223,0,0,1,2.9,1.2,1.611,1.611,0,0,0,1.961-.248l2.581-2.579L70.9,48.09l-2.581,2.579a1.613,1.613,0,0,0-.248,1.96,11.233,11.233,0,0,1,1.2,2.9,1.613,1.613,0,0,0,1.561,1.21h3.645Z" transform="translate(22.29 22.291)" fill="#fff"/>
      </g>
    </g>
    <g id="Neuro" transform="translate(100 355.999)">
      <path id="Circulo_1" data-name="Circulo 1" d="M52.6,280.784a92.925,92.925,0,1,0,92.923-92.925A92.923,92.923,0,0,0,52.6,280.784" transform="translate(-52.599 -187.859)" fill="#785ba7"/>
      <g id="Neuro_" data-name="Neuro " transform="translate(44 43)">
        <path id="Trazado_57" data-name="Trazado 57" d="M91.648,64.22V38.907a7.813,7.813,0,1,0-7.277-12.942L57.168,8.847a7.758,7.758,0,0,0,.1-1.034,7.813,7.813,0,0,0-15.625,0,7.756,7.756,0,0,0,.1,1.034l-27.2,17.116A7.8,7.8,0,1,0,7.272,38.907V64.22a7.813,7.813,0,1,0,7.586,12.569L41.722,91.444c-.023.248-.075.489-.075.744a7.813,7.813,0,1,0,15.625,0c0-.255-.052-.5-.075-.744L84.062,76.789A7.8,7.8,0,1,0,91.648,64.22ZM90.085,26.563A4.688,4.688,0,1,1,85.4,31.25,4.688,4.688,0,0,1,90.085,26.563ZM49.46,3.125a4.688,4.688,0,1,1-4.688,4.688A4.688,4.688,0,0,1,49.46,3.125ZM4.147,31.25a4.688,4.688,0,1,1,4.688,4.688A4.688,4.688,0,0,1,4.147,31.25ZM8.834,76.564a4.688,4.688,0,1,1,4.688-4.688A4.688,4.688,0,0,1,8.834,76.564ZM49.46,96.877a4.688,4.688,0,1,1,4.688-4.688,4.688,4.688,0,0,1-4.688,4.688ZM56.251,88.4a7.741,7.741,0,0,0-13.581,0L16.309,74.026a7.691,7.691,0,0,0,.338-2.15A7.827,7.827,0,0,0,10.4,64.22V38.907a7.827,7.827,0,0,0,6.25-7.656,7.719,7.719,0,0,0-.483-2.613L42.816,11.875a7.755,7.755,0,0,0,13.281,0L82.756,28.638a7.719,7.719,0,0,0-.483,2.613,7.827,7.827,0,0,0,6.25,7.656V64.22a7.827,7.827,0,0,0-6.25,7.656,7.692,7.692,0,0,0,.338,2.147ZM90.085,76.564a4.688,4.688,0,1,1,4.688-4.688A4.688,4.688,0,0,1,90.085,76.564Z" transform="translate(-0.962)" fill="#fff"/>
        <path id="Trazado_58" data-name="Trazado 58" d="M27.306,33.331a5.261,5.261,0,0,1-3.619-4.777,1.563,1.563,0,1,0-3.125.009,8.519,8.519,0,0,0,3.031,6.25,8.519,8.519,0,0,0-3.036,6.25,1.563,1.563,0,0,0,1.55,1.563h.012a1.563,1.563,0,0,0,1.563-1.545A5.263,5.263,0,0,1,27.3,36.3a1.563,1.563,0,0,0,0-2.969Z" transform="translate(10.061 15.186)" fill="#fff"/>
        <path id="Trazado_59" data-name="Trazado 59" d="M69.291,34.623A11.406,11.406,0,0,0,68.2,26.811a11.628,11.628,0,0,0-8.511-5.916,9.31,9.31,0,0,0-8.96-6.884A9.053,9.053,0,0,0,42.7,17.695a9.053,9.053,0,0,0-8.031-3.684A9.308,9.308,0,0,0,25.7,20.9a11.625,11.625,0,0,0-8.508,5.92,11.406,11.406,0,0,0-1.094,7.8,9.206,9.206,0,0,0-3.091,7.509A9.219,9.219,0,0,0,16.1,49.648a11.406,11.406,0,0,0,1.094,7.8A11.628,11.628,0,0,0,25.7,63.369a9.31,9.31,0,0,0,8.96,6.892A9.053,9.053,0,0,0,42.7,66.577a9.053,9.053,0,0,0,8.031,3.684,9.308,9.308,0,0,0,8.964-6.892,11.625,11.625,0,0,0,8.508-5.92,11.406,11.406,0,0,0,1.094-7.8,9.206,9.206,0,0,0,3.091-7.509,9.219,9.219,0,0,0-3.092-7.513ZM34.664,67.136A6.391,6.391,0,0,1,28.429,61.6a9.139,9.139,0,0,1-.25-2.2,8.1,8.1,0,0,1,1.661-5.291,1.563,1.563,0,1,0-2.416-1.975,11.166,11.166,0,0,0-2.37,7.266c0,.2.025.4.033.6a8.066,8.066,0,0,1-5.108-3.956,8.583,8.583,0,0,1-.975-4.8,8.751,8.751,0,0,0,2.225.43h.045a1.563,1.563,0,0,0,.053-3.125A6.142,6.142,0,0,1,18.7,47.7a6.016,6.016,0,0,1-2.567-5.561A6.016,6.016,0,0,1,18.7,36.578a6.169,6.169,0,0,1,2.63-.85,1.563,1.563,0,0,0,1.509-1.6A1.545,1.545,0,0,0,21.229,32.6a8.75,8.75,0,0,0-2.225.43,8.594,8.594,0,0,1,.973-4.8,8.07,8.07,0,0,1,5.109-3.961c-.008.2-.033.392-.033.6a11.166,11.166,0,0,0,2.37,7.266,1.563,1.563,0,0,0,2.416-1.981,8.1,8.1,0,0,1-1.661-5.284,9.264,9.264,0,0,1,.259-2.242,6.374,6.374,0,0,1,6.225-5.492c4.414,0,6.469,2.031,6.469,6.406V34.408a13.247,13.247,0,0,0-4.625-3.044,1.563,1.563,0,1,0-1.031,2.95c.056.019,5.656,2.041,5.656,7.822a8.652,8.652,0,0,1-5.656,7.822,1.563,1.563,0,1,0,1.031,2.95,13.247,13.247,0,0,0,4.625-3.044V60.73C41.133,65.1,39.078,67.136,34.664,67.136ZM65.413,56.042A8.07,8.07,0,0,1,60.3,60c.008-.2.033-.392.033-.6a11.166,11.166,0,0,0-2.37-7.27,1.563,1.563,0,1,0-2.416,1.981A8.1,8.1,0,0,1,57.211,59.4a9.265,9.265,0,0,1-.259,2.242,6.374,6.374,0,0,1-6.225,5.492c-4.414,0-6.469-2.031-6.469-6.406V49.864a13.247,13.247,0,0,0,4.625,3.044,1.563,1.563,0,0,0,1.031-2.95c-.056-.019-5.656-2.041-5.656-7.822a8.652,8.652,0,0,1,5.656-7.822,1.563,1.563,0,0,0-1.031-2.95,13.247,13.247,0,0,0-4.625,3.044V23.542c0-4.375,2.055-6.406,6.469-6.406a6.391,6.391,0,0,1,6.234,5.534,9.139,9.139,0,0,1,.25,2.2,8.1,8.1,0,0,1-1.661,5.291,1.563,1.563,0,0,0,2.416,1.975,11.166,11.166,0,0,0,2.37-7.266c0-.2-.025-.4-.033-.6a8.066,8.066,0,0,1,5.108,3.956,8.583,8.583,0,0,1,.975,4.8,8.75,8.75,0,0,0-2.225-.43,1.563,1.563,0,1,0-.1,3.125,6.142,6.142,0,0,1,2.628.848,6.016,6.016,0,0,1,2.567,5.561,6.016,6.016,0,0,1-2.564,5.558,6.169,6.169,0,0,1-2.63.85,1.563,1.563,0,1,0,.052,3.125h.045a8.75,8.75,0,0,0,2.225-.43,8.594,8.594,0,0,1-.973,4.8Z" transform="translate(5.803 7.865)" fill="#fff"/>
        <path id="Trazado_60" data-name="Trazado 60" d="M46.255,28.563A1.563,1.563,0,0,0,44.7,27h-.012a1.563,1.563,0,0,0-1.563,1.545,5.263,5.263,0,0,1-3.619,4.778,1.563,1.563,0,0,0,0,2.969,5.261,5.261,0,0,1,3.619,4.777,1.563,1.563,0,1,0,3.125-.009,8.519,8.519,0,0,0-3.031-6.247,8.519,8.519,0,0,0,3.031-6.25Z" transform="translate(20.119 15.188)" fill="#fff"/>
      </g>
    </g>
  </g>
</svg>
