<svg xmlns="http://www.w3.org/2000/svg" width="20" height="15.273" viewBox="0 0 20 15.273">
  <path id="Icono_Correo_" data-name="Icono Correo " d="M19.219,69.523A.781.781,0,0,0,20,68.742V63.625A3.129,3.129,0,0,0,16.875,60.5H3.125A3.129,3.129,0,0,0,0,63.625v9.023a3.129,3.129,0,0,0,3.125,3.125h13.75A3.129,3.129,0,0,0,20,72.648a.781.781,0,0,0-1.562,0,1.564,1.564,0,0,1-1.562,1.563H3.125a1.564,1.564,0,0,1-1.562-1.562V63.791L8.35,68.011a3.106,3.106,0,0,0,3.3,0l6.787-4.221v4.952A.781.781,0,0,0,19.219,69.523Zm-8.394-2.839a1.553,1.553,0,0,1-1.65,0L2.214,62.356a1.554,1.554,0,0,1,.911-.293h13.75a1.554,1.554,0,0,1,.911.293Z" transform="translate(0 -60.5)" fill="#1b1c3c"/>
</svg>
