<svg id="Neuro_" data-name="Neuro " xmlns="http://www.w3.org/2000/svg" width="96.982" height="100" viewBox="0 0 96.982 100">
  <path id="Trazado_57" data-name="Trazado 57" d="M91.648,64.22V38.907a7.813,7.813,0,1,0-7.277-12.942L57.168,8.847a7.758,7.758,0,0,0,.1-1.034,7.813,7.813,0,0,0-15.625,0,7.756,7.756,0,0,0,.1,1.034l-27.2,17.116A7.8,7.8,0,1,0,7.272,38.907V64.22a7.813,7.813,0,1,0,7.586,12.569L41.722,91.444c-.023.248-.075.489-.075.744a7.813,7.813,0,1,0,15.625,0c0-.255-.052-.5-.075-.744L84.062,76.789A7.8,7.8,0,1,0,91.648,64.22ZM90.085,26.563A4.688,4.688,0,1,1,85.4,31.25,4.688,4.688,0,0,1,90.085,26.563ZM49.46,3.125a4.688,4.688,0,1,1-4.688,4.688A4.688,4.688,0,0,1,49.46,3.125ZM4.147,31.25a4.688,4.688,0,1,1,4.688,4.688A4.688,4.688,0,0,1,4.147,31.25ZM8.834,76.564a4.688,4.688,0,1,1,4.688-4.688A4.688,4.688,0,0,1,8.834,76.564ZM49.46,96.877a4.688,4.688,0,1,1,4.688-4.688,4.688,4.688,0,0,1-4.688,4.688ZM56.251,88.4a7.741,7.741,0,0,0-13.581,0L16.309,74.026a7.691,7.691,0,0,0,.338-2.15A7.827,7.827,0,0,0,10.4,64.22V38.907a7.827,7.827,0,0,0,6.25-7.656,7.719,7.719,0,0,0-.483-2.613L42.816,11.875a7.755,7.755,0,0,0,13.281,0L82.756,28.638a7.719,7.719,0,0,0-.483,2.613,7.827,7.827,0,0,0,6.25,7.656V64.22a7.827,7.827,0,0,0-6.25,7.656,7.692,7.692,0,0,0,.338,2.147ZM90.085,76.564a4.688,4.688,0,1,1,4.688-4.688A4.688,4.688,0,0,1,90.085,76.564Z" transform="translate(-0.962)" fill="#fff"/>
  <path id="Trazado_58" data-name="Trazado 58" d="M27.306,33.331a5.261,5.261,0,0,1-3.619-4.777,1.563,1.563,0,1,0-3.125.009,8.519,8.519,0,0,0,3.031,6.25,8.519,8.519,0,0,0-3.036,6.25,1.563,1.563,0,0,0,1.55,1.563h.012a1.563,1.563,0,0,0,1.563-1.545A5.263,5.263,0,0,1,27.3,36.3a1.563,1.563,0,0,0,0-2.969Z" transform="translate(10.061 15.186)" fill="#fff"/>
  <path id="Trazado_59" data-name="Trazado 59" d="M69.291,34.623A11.406,11.406,0,0,0,68.2,26.811a11.628,11.628,0,0,0-8.511-5.916,9.31,9.31,0,0,0-8.96-6.884A9.053,9.053,0,0,0,42.7,17.695a9.053,9.053,0,0,0-8.031-3.684A9.308,9.308,0,0,0,25.7,20.9a11.625,11.625,0,0,0-8.508,5.92,11.406,11.406,0,0,0-1.094,7.8,9.206,9.206,0,0,0-3.091,7.509A9.219,9.219,0,0,0,16.1,49.648a11.406,11.406,0,0,0,1.094,7.8A11.628,11.628,0,0,0,25.7,63.369a9.31,9.31,0,0,0,8.96,6.892A9.053,9.053,0,0,0,42.7,66.577a9.053,9.053,0,0,0,8.031,3.684,9.308,9.308,0,0,0,8.964-6.892,11.625,11.625,0,0,0,8.508-5.92,11.406,11.406,0,0,0,1.094-7.8,9.206,9.206,0,0,0,3.091-7.509,9.219,9.219,0,0,0-3.092-7.513ZM34.664,67.136A6.391,6.391,0,0,1,28.429,61.6a9.139,9.139,0,0,1-.25-2.2,8.1,8.1,0,0,1,1.661-5.291,1.563,1.563,0,1,0-2.416-1.975,11.166,11.166,0,0,0-2.37,7.266c0,.2.025.4.033.6a8.066,8.066,0,0,1-5.108-3.956,8.583,8.583,0,0,1-.975-4.8,8.751,8.751,0,0,0,2.225.43h.045a1.563,1.563,0,0,0,.053-3.125A6.142,6.142,0,0,1,18.7,47.7a6.016,6.016,0,0,1-2.567-5.561A6.016,6.016,0,0,1,18.7,36.578a6.169,6.169,0,0,1,2.63-.85,1.563,1.563,0,0,0,1.509-1.6A1.545,1.545,0,0,0,21.229,32.6a8.75,8.75,0,0,0-2.225.43,8.594,8.594,0,0,1,.973-4.8,8.07,8.07,0,0,1,5.109-3.961c-.008.2-.033.392-.033.6a11.166,11.166,0,0,0,2.37,7.266,1.563,1.563,0,0,0,2.416-1.981,8.1,8.1,0,0,1-1.661-5.284,9.264,9.264,0,0,1,.259-2.242,6.374,6.374,0,0,1,6.225-5.492c4.414,0,6.469,2.031,6.469,6.406V34.408a13.247,13.247,0,0,0-4.625-3.044,1.563,1.563,0,1,0-1.031,2.95c.056.019,5.656,2.041,5.656,7.822a8.652,8.652,0,0,1-5.656,7.822,1.563,1.563,0,1,0,1.031,2.95,13.247,13.247,0,0,0,4.625-3.044V60.73C41.133,65.1,39.078,67.136,34.664,67.136ZM65.413,56.042A8.07,8.07,0,0,1,60.3,60c.008-.2.033-.392.033-.6a11.166,11.166,0,0,0-2.37-7.27,1.563,1.563,0,1,0-2.416,1.981A8.1,8.1,0,0,1,57.211,59.4a9.265,9.265,0,0,1-.259,2.242,6.374,6.374,0,0,1-6.225,5.492c-4.414,0-6.469-2.031-6.469-6.406V49.864a13.247,13.247,0,0,0,4.625,3.044,1.563,1.563,0,0,0,1.031-2.95c-.056-.019-5.656-2.041-5.656-7.822a8.652,8.652,0,0,1,5.656-7.822,1.563,1.563,0,0,0-1.031-2.95,13.247,13.247,0,0,0-4.625,3.044V23.542c0-4.375,2.055-6.406,6.469-6.406a6.391,6.391,0,0,1,6.234,5.534,9.139,9.139,0,0,1,.25,2.2,8.1,8.1,0,0,1-1.661,5.291,1.563,1.563,0,0,0,2.416,1.975,11.166,11.166,0,0,0,2.37-7.266c0-.2-.025-.4-.033-.6a8.066,8.066,0,0,1,5.108,3.956,8.583,8.583,0,0,1,.975,4.8,8.75,8.75,0,0,0-2.225-.43,1.563,1.563,0,1,0-.1,3.125,6.142,6.142,0,0,1,2.628.848,6.016,6.016,0,0,1,2.567,5.561,6.016,6.016,0,0,1-2.564,5.558,6.169,6.169,0,0,1-2.63.85,1.563,1.563,0,1,0,.052,3.125h.045a8.75,8.75,0,0,0,2.225-.43,8.594,8.594,0,0,1-.973,4.8Z" transform="translate(5.803 7.865)" fill="#fff"/>
  <path id="Trazado_60" data-name="Trazado 60" d="M46.255,28.563A1.563,1.563,0,0,0,44.7,27h-.012a1.563,1.563,0,0,0-1.563,1.545,5.263,5.263,0,0,1-3.619,4.778,1.563,1.563,0,0,0,0,2.969,5.261,5.261,0,0,1,3.619,4.777,1.563,1.563,0,1,0,3.125-.009,8.519,8.519,0,0,0-3.031-6.247,8.519,8.519,0,0,0,3.031-6.25Z" transform="translate(20.119 15.188)" fill="#fff"/>
</svg>
