<svg xmlns="http://www.w3.org/2000/svg" width="32" height="24.437" viewBox="0 0 32 24.437">
  <path id="Icono_Correo_" data-name="Icono Correo " d="M30.75,74.938A1.25,1.25,0,0,0,32,73.688V65.5a5.006,5.006,0,0,0-5-5H5a5.006,5.006,0,0,0-5,5V79.938a5.006,5.006,0,0,0,5,5H27a5.006,5.006,0,0,0,5-5,1.25,1.25,0,0,0-2.5,0,2.5,2.5,0,0,1-2.5,2.5H5a2.5,2.5,0,0,1-2.5-2.5V65.765l10.86,6.753a4.969,4.969,0,0,0,5.281,0L29.5,65.765v7.923A1.25,1.25,0,0,0,30.75,74.938ZM17.32,70.395a2.484,2.484,0,0,1-2.64,0L3.543,63.47A2.486,2.486,0,0,1,5,63H27a2.487,2.487,0,0,1,1.457.47Z" transform="translate(0 -60.5)" fill="#1b1c3c"/>
</svg>
