<svg id="Logo_Alcanza" data-name="Logo Alcanza" xmlns="http://www.w3.org/2000/svg" width="424.333" height="100" viewBox="0 0 424.333 100">
  <path id="Trazado_85" data-name="Trazado 85" d="M34.133,88.282H25.592v-8.54H8.511v8.54H0V62.691A16.64,16.64,0,0,1,1.339,56.04a17.355,17.355,0,0,1,3.645-5.43A17.05,17.05,0,0,1,10.4,46.948a16.64,16.64,0,0,1,6.651-1.339A16.641,16.641,0,0,1,23.7,46.948a17.136,17.136,0,0,1,9.091,9.091,16.64,16.64,0,0,1,1.339,6.651ZM25.592,71.231v-8.54a8.323,8.323,0,0,0-.669-3.318,8.527,8.527,0,0,0-4.552-4.553,8.559,8.559,0,0,0-6.636,0,8.525,8.525,0,0,0-4.553,4.553,8.333,8.333,0,0,0-.67,3.318v8.54Z" transform="translate(0 -20.356)" fill="#e087b8"/>
  <path id="Trazado_86" data-name="Trazado 86" d="M152.583,88.283H122.706V45.61h8.54V79.742h21.337Z" transform="translate(-54.766 -20.357)" fill="#e087b8"/>
  <path id="Trazado_87" data-name="Trazado 87" d="M261.92,83.429a22.012,22.012,0,0,1-20.161,4.509,22.221,22.221,0,0,1-15.444-15.444,22.136,22.136,0,0,1,0-11.71,22.213,22.213,0,0,1,15.444-15.459,21.585,21.585,0,0,1,5.847-.788,22.032,22.032,0,0,1,7.648,1.354,21.2,21.2,0,0,1,6.666,3.943L257.4,57.272a12.786,12.786,0,0,0-4.434-3.109,13.575,13.575,0,0,0-5.357-1.087,13.162,13.162,0,0,0-5.3,1.072,13.93,13.93,0,0,0-4.315,2.9,13.578,13.578,0,0,0-2.916,4.314,13.2,13.2,0,0,0-1.071,5.283,12.984,12.984,0,0,0,1.071,5.252,13.752,13.752,0,0,0,7.231,7.217,13.162,13.162,0,0,0,5.3,1.071,13.574,13.574,0,0,0,5.357-1.086,12.767,12.767,0,0,0,4.434-3.11Z" transform="translate(-100.657 -19.877)" fill="#e087b8"/>
  <path id="Trazado_88" data-name="Trazado 88" d="M381.128,88.282h-8.541v-8.54H355.506v8.54h-8.511V62.691a16.641,16.641,0,0,1,1.339-6.651,17.354,17.354,0,0,1,3.645-5.43,17.05,17.05,0,0,1,5.416-3.661,17.184,17.184,0,0,1,13.3,0,17.136,17.136,0,0,1,9.091,9.091,16.641,16.641,0,0,1,1.339,6.651Zm-8.541-17.051v-8.54a8.323,8.323,0,0,0-.669-3.318,8.527,8.527,0,0,0-4.552-4.553,8.559,8.559,0,0,0-6.636,0,8.526,8.526,0,0,0-4.553,4.553,8.332,8.332,0,0,0-.67,3.318v8.54Z" transform="translate(-154.871 -20.356)" fill="#e087b8"/>
  <path id="Trazado_89" data-name="Trazado 89" d="M621.731,88.283H588.7l18.212-34.132H588.7V45.61h33.031L603.579,79.742h18.152Z" transform="translate(-262.749 -20.357)" fill="#e087b8"/>
  <path id="Trazado_90" data-name="Trazado 90" d="M738.874,88.282h-8.541v-8.54H713.252v8.54h-8.511V62.691a16.642,16.642,0,0,1,1.339-6.651,17.355,17.355,0,0,1,3.645-5.43,17.051,17.051,0,0,1,5.416-3.661,17.184,17.184,0,0,1,13.3,0,17.136,17.136,0,0,1,9.091,9.091,16.64,16.64,0,0,1,1.339,6.651Zm-8.541-17.051v-8.54a8.332,8.332,0,0,0-.669-3.318,8.527,8.527,0,0,0-4.552-4.553,8.559,8.559,0,0,0-6.636,0,8.526,8.526,0,0,0-4.553,4.553,8.332,8.332,0,0,0-.67,3.318v8.54Z" transform="translate(-314.54 -20.356)" fill="#e087b8"/>
  <path id="Trazado_91" data-name="Trazado 91" d="M512.794,13.368,498.893,0l-12.7,13.51a3.9,3.9,0,0,0,.239,5.576l.047.042a3.9,3.9,0,0,0,5.493-.285l3.321-3.662V53.375L478.837,25.253H469.7V95.73a4.27,4.27,0,0,0,8.54,0v-55.9L494.7,67.926h9.135V15.456l3.506,3.488a3.9,3.9,0,1,0,5.455-5.576" transform="translate(-209.637)" fill="#a369b8"/>
</svg>
