<svg xmlns="http://www.w3.org/2000/svg" width="20.004" height="20" viewBox="0 0 20.004 20">
  <path id="libro-abierto" d="M19.321,6.439h-.592A.359.359,0,0,0,18.56,6.1a8.509,8.509,0,0,0-1-.372V3.826a.293.293,0,0,0-.293-.293,11.363,11.363,0,0,0-5.539,1.4,9.767,9.767,0,0,0-1.459.989,8.423,8.423,0,0,0-.509-2.214A5.6,5.6,0,0,0,5.536.057a.293.293,0,0,0-.353.287V1.683a9.373,9.373,0,0,0-1.6-.488.293.293,0,0,0-.353.287V5.518A10.015,10.015,0,0,0,1.444,6.1a.359.359,0,0,0-.168.335H.684A.685.685,0,0,0,0,7.123v8.961a.293.293,0,0,0,.586,0V7.123a.1.1,0,0,1,.1-.1h.592V18.548a.293.293,0,0,0,.293.293H18.436a.293.293,0,0,0,.293-.293V7.025h.592a.1.1,0,0,1,.1.1V19.372a.1.1,0,0,1-.1.1H10.883a1.241,1.241,0,0,0-1.762,0H.684a.1.1,0,0,1-.1-.1v-1.5a.293.293,0,0,0-.586,0v1.5a.685.685,0,0,0,.684.684H9.255a.293.293,0,0,0,.233-.116.65.65,0,0,1,1.027,0,.293.293,0,0,0,.233.116h8.571A.685.685,0,0,0,20,19.372V7.123A.685.685,0,0,0,19.321,6.439ZM16.971,4.123v3a.293.293,0,1,0,.586,0V6.347c.257.085.457.162.585.214V17.233a10.414,10.414,0,0,0-5.254-.355,10.838,10.838,0,0,1,4.375-.9.293.293,0,0,0,.293-.293V8.92a.293.293,0,1,0-.586,0V15.4a11.331,11.331,0,0,0-5.246,1.4,9.815,9.815,0,0,0-1.429.964V6.683a10.2,10.2,0,0,1,6.675-2.56ZM5.769.716A4.959,4.959,0,0,1,9.2,3.906,7.773,7.773,0,0,1,9.71,6.554s0,0,0,.007v8.893a5.573,5.573,0,0,0-3.941-3.484Zm-.586,1.6V12.2a.293.293,0,0,0,.233.287A4.972,4.972,0,0,1,9.2,15.766a7.553,7.553,0,0,1,.381,1.369,10.673,10.673,0,0,0-.861-1.085,9.619,9.619,0,0,0-4.908-2.943V5.748h0V1.85a8.734,8.734,0,0,1,1.367.469ZM1.862,6.562a10.363,10.363,0,0,1,1.367-.441v7.221a.293.293,0,0,0,.233.287,9.013,9.013,0,0,1,4.812,2.8,10.033,10.033,0,0,1,.9,1.146,8.312,8.312,0,0,0-1.334-.518,10.15,10.15,0,0,0-5.977.177V6.562Zm0,11.288a9.639,9.639,0,0,1,5.783-.24,7.55,7.55,0,0,1,1.564.645H1.862Zm8.933.406a7.54,7.54,0,0,1,1.537-.637,9.627,9.627,0,0,1,5.812.231v.406Z" transform="translate(0 -0.055)" fill="#fff"/>
</svg>
